# xmcd CD database file
#
# Track frame offsets:
#	150
#	15224
#	32517
#	48859
#	62554
#	74902
#	88154
#	103088
#	117555
#	132218
#
# Disc length: 2014 seconds
#
# Revision: 1
# Processed by: cddbd v1.5.2PL0 Copyright (c) Steve Scherf et al.
# Submitted via: CDex 1.82
#
DISCID=8507dc0a
DTITLE=Stigers, Curtis - One More For The Road
DYEAR=2017
DGENRE=Jazz
TTITLE0=Come Fly With Me
TTITLE1=I've Got You Under My Skin
TTITLE2=Don't Worry 'Bout Me
TTITLE3=You Make Me Feel So Young
TTITLE4=My Kind Of Town
TTITLE5=Fly Me To The Moon
TTITLE6=Summer Wind
TTITLE7=They Can't Take That Away From Me
TTITLE8=The Lady Is A Tramp
TTITLE9=One For My Baby (And One More For The Road)
EXTD=YEAR: 2017
EXTT0=
EXTT1=
EXTT2=
EXTT3=
EXTT4=
EXTT5=
EXTT6=
EXTT7=
EXTT8=
EXTT9=
PLAYORDER=
